<?xml version="1.0" standalone="no"?><!DOCTYPE svg PUBLIC "-//W3C//DTD SVG 1.1//EN" "http://www.w3.org/Graphics/SVG/1.1/DTD/svg11.dtd"><svg t="1667198178578" class="icon" viewBox="0 0 1024 1024" version="1.1" xmlns="http://www.w3.org/2000/svg" p-id="2724" xmlns:xlink="http://www.w3.org/1999/xlink" width="200" height="200"><path d="M47.4 57.08m314.11 0l271.78 0q314.11 0 314.11 314.11l0 271.78q0 314.11-314.11 314.11l-271.78 0q-314.11 0-314.11-314.11l0-271.78q0-314.11 314.11-314.11Z" fill="#F8E9AC" p-id="2725"></path><path d="M387.57 201h-39.76a6.64 6.64 0 0 0-6.64 6.63v29.17H263.4v684.28h593.73V236.8h-81.44v-29.22a6.63 6.63 0 0 0-6.64-6.63H729.3a6.63 6.63 0 0 0-6.64 6.63v29.22h-74.53v-29.22a6.63 6.63 0 0 0-6.64-6.63h-39.75a6.63 6.63 0 0 0-6.64 6.63v29.22h-78.05v-29.22a6.64 6.64 0 0 0-6.64-6.63h-39.76a6.64 6.64 0 0 0-6.64 6.63v29.22h-69.8v-29.22a6.63 6.63 0 0 0-6.64-6.58z" fill="#606060" p-id="2726"></path><path d="M803.13 191.8v684.28H209.4V191.8z" fill="#F0B9A0" p-id="2727"></path><path d="M758.84 227.76v603.31H253.7V227.76z" fill="#FFFFFF" p-id="2728"></path><path d="M290.36 296.58h435.66v52.62H290.36zM290.36 392.24h435.66v52.62H290.36zM290.36 487.89h435.66v52.62H290.36zM290.36 583.54h435.66v52.62H290.36zM290.36 679.19h435.66v52.62H290.36z" fill="#F8E9AC" p-id="2729"></path><path d="M213.15 876.08v-674c0-2.94 0.42-6.22 0-9.13a8.83 8.83 0 0 1 0-1.15l-3.75 3.75h584.71c2.56 0 5.52 0.42 8 0a6.28 6.28 0 0 1 1 0l-3.75-3.75v674c0 2.93-0.41 6.21 0 9.13a8.82 8.82 0 0 1 0 1.15l3.75-3.75H233.46c-7.65 0-15.44-0.44-23.08 0h-1c-4.82 0-4.83 7.5 0 7.5h569.7c7.65 0 15.44 0.43 23.08 0h1a3.8 3.8 0 0 0 3.75-3.75V219.74c0-8.91 0.27-17.88 0-26.79v-1.15a3.8 3.8 0 0 0-3.75-3.75h-569.7c-7.65 0-15.44-0.43-23.08 0h-1a3.81 3.81 0 0 0-3.75 3.75v656.33c0 8.92-0.26 17.88 0 26.8v1.15c0.02 4.82 7.52 4.83 7.52 0z" fill="#FFFFFF" p-id="2730"></path><path d="M257.45 831.08V236.93c0-2.59 0.4-5.55 0-8.11a6.14 6.14 0 0 1 0-1l-3.75 3.75h497.55c2.09 0 4.69 0.42 6.75 0a4.71 4.71 0 0 1 0.84 0l-3.75-3.75v594.1c0 2.58-0.41 5.55 0 8.1a7.5 7.5 0 0 1 0 1.06l3.75-3.75H274.21c-6.5 0-13.18-0.43-19.67 0h-0.84c-4.83 0-4.84 7.5 0 7.5h484.62c6.51 0 13.18 0.42 19.68 0h0.84a3.8 3.8 0 0 0 3.75-3.75V301.77c0-24.27 0.79-48.69 0-72.95v-1a3.8 3.8 0 0 0-3.75-3.75H274.21c-6.5 0-13.18-0.43-19.67 0h-0.84a3.8 3.8 0 0 0-3.75 3.75v529.26c0 24.27-0.79 48.68 0 72.94v1.06c0.05 4.82 7.5 4.83 7.5 0z" fill="#FFFFFF" p-id="2731"></path><path d="M726 345.46H297c-1.83 0-4.13-0.39-5.93 0a4 4 0 0 1-0.77 0l3.75 3.75v-52.63l-3.75 3.75h429c1.83 0 4.13 0.38 5.93 0a4 4 0 0 1 0.77 0l-3.75-3.75v52.63c0 4.82 7.5 4.83 7.5 0v-52.63a3.81 3.81 0 0 0-3.75-3.75H308.11c-5.61 0-11.38-0.38-17 0h-0.77a3.8 3.8 0 0 0-3.75 3.75v52.63a3.81 3.81 0 0 0 3.75 3.75h417.94c5.61 0 11.37 0.38 17 0h0.77c4.8 0.04 4.81-7.5-0.05-7.5zM726 441.11H297c-1.83 0-4.13-0.38-5.93 0a4 4 0 0 1-0.77 0l3.75 3.75v-52.62l-3.69 3.76h429c1.83 0 4.13 0.38 5.93 0a4 4 0 0 1 0.77 0l-3.75-3.75v52.62c0 4.83 7.5 4.83 7.5 0v-52.63a3.8 3.8 0 0 0-3.75-3.75H308.11c-5.61 0-11.38-0.39-17 0h-0.77a3.8 3.8 0 0 0-3.75 3.75v52.62a3.8 3.8 0 0 0 3.75 3.75h417.94c5.61 0 11.37 0.38 17 0h0.77c4.8 0 4.81-7.5-0.05-7.5zM726 536.76H297c-1.83 0-4.13-0.38-5.93 0a4 4 0 0 1-0.77 0l3.75 3.75v-52.62l-3.75 3.75h429c1.83 0 4.13 0.38 5.93 0a4 4 0 0 1 0.77 0l-3.75-3.75v52.62c0 4.83 7.5 4.84 7.5 0v-52.62a3.8 3.8 0 0 0-3.75-3.75H308.11c-5.61 0-11.38-0.38-17 0h-0.77a3.8 3.8 0 0 0-3.75 3.75v52.62a3.8 3.8 0 0 0 3.75 3.75h417.94c5.61 0 11.37 0.39 17 0h0.72c4.85 0 4.86-7.5 0-7.5zM726 632.42H297c-1.83 0-4.13-0.39-5.93 0a4 4 0 0 1-0.77 0l3.75 3.75v-52.63l-3.75 3.75h429c1.83 0 4.13 0.38 5.93 0a4 4 0 0 1 0.77 0l-3.75-3.75v52.63c0 4.82 7.5 4.83 7.5 0v-52.63a3.8 3.8 0 0 0-3.75-3.75H308.11c-5.61 0-11.38-0.38-17 0h-0.77a3.8 3.8 0 0 0-3.75 3.75v52.63a3.81 3.81 0 0 0 3.75 3.75h417.94c5.61 0 11.37 0.38 17 0h0.77c4.8 0 4.81-7.5-0.05-7.5zM726 728.07H297c-1.83 0-4.13-0.38-5.93 0a4 4 0 0 1-0.77 0l3.75 3.75v-52.63l-3.75 3.75h429c1.83 0 4.13 0.39 5.93 0a5 5 0 0 1 0.77 0l-3.75-3.75v52.63c0 4.82 7.5 4.83 7.5 0v-52.63a3.81 3.81 0 0 0-3.75-3.75H308.11c-5.61 0-11.38-0.38-17 0h-0.77a3.8 3.8 0 0 0-3.75 3.75v52.63a3.8 3.8 0 0 0 3.75 3.75h417.94c5.61 0 11.37 0.38 17 0h0.77c4.8 0 4.81-7.5-0.05-7.5z" fill="#FFFFFF" p-id="2732"></path><path d="M594.14 155.94m0 6.64l0 80.97q0 6.64-6.64 6.64l-39.75 0q-6.64 0-6.64-6.64l0-80.97q0-6.64 6.64-6.64l39.75 0q6.64 0 6.64 6.64Z" fill="#68BCAC" p-id="2733"></path><path d="M721.7 155.94m0 6.64l0 80.97q0 6.64-6.64 6.64l-39.75 0q-6.64 0-6.64-6.64l0-80.97q0-6.64 6.64-6.64l39.75 0q6.64 0 6.64 6.64Z" fill="#68BCAC" p-id="2734"></path><path d="M463.05 155.95m0 6.64l0 80.97q0 6.64-6.64 6.64l-39.75 0q-6.64 0-6.64-6.64l0-80.97q0-6.64 6.64-6.64l39.75 0q6.64 0 6.64 6.64Z" fill="#68BCAC" p-id="2735"></path><path d="M340.21 155.95m0 6.64l0 80.97q0 6.64-6.64 6.64l-39.75 0q-6.64 0-6.64-6.64l0-80.97q0-6.64 6.64-6.64l39.75 0q6.64 0 6.64 6.64Z" fill="#68BCAC" p-id="2736"></path><path d="M544.85 243.55v-78.4c0-2.54-0.18-4.91 3.18-5.45s7.44 0 10.91 0h17.8c3.33 0 7.25-0.58 10.55 0 5.23 0.91 3.09 13 3.09 16.67v62.42c0 2.82 0.84 6.92-2.9 7.65-3.45 0.67-7.69 0-11.19 0h-19.12c-2.89 0-11.87 1.55-12.32-2.89-0.48-4.75-8-4.8-7.5 0 1.37 13.57 17.62 10.39 27.3 10.39h18.71c4.63 0 9.09 0 12.29-4 4.19-5.32 2.23-16.33 2.23-22.54v-38.96c0-8.46 0.38-17 0-25.46-0.56-12.66-13.57-10.78-22.5-10.78h-19c-3.8 0-8.51-0.66-12.17 0.65-8.84 3.16-6.81 14.67-6.81 22v68.69c-0.05 4.84 7.45 4.85 7.45 0.01zM672.41 243.55v-78.4c0-2.54-0.18-4.91 3.18-5.45s7.44 0 10.91 0h17.8c3.33 0 7.25-0.58 10.54 0 5.24 0.91 3.1 13 3.1 16.67v62.42c0 2.82 0.84 6.92-2.9 7.65-3.45 0.67-7.69 0-11.19 0h-19.12c-2.89 0-11.87 1.55-12.32-2.89-0.48-4.75-8-4.8-7.5 0 1.37 13.57 17.62 10.39 27.29 10.39h18.72c4.63 0 9.09 0 12.29-4 4.19-5.32 2.23-16.33 2.23-22.54v-38.96c0-8.46 0.38-17 0-25.46-0.56-12.66-13.57-10.78-22.5-10.78h-19.05c-3.8 0-8.51-0.66-12.17 0.65-8.85 3.16-6.81 14.67-6.81 22v68.69c0 4.84 7.5 4.85 7.5 0.01zM413.76 243.55v-78.4c0-2.54-0.17-4.91 3.18-5.45s7.44 0 10.91 0h17.8c3.34 0 7.25-0.58 10.55 0 5.23 0.91 3.1 13 3.1 16.67v62.42c0 2.82 0.84 6.92-2.91 7.65-3.44 0.67-7.69 0-11.18 0h-19.12c-2.9 0-11.88 1.55-12.33-2.89-0.48-4.75-8-4.8-7.5 0 1.37 13.57 17.63 10.39 27.3 10.39h18.71c4.63 0 9.1 0 12.29-4 4.19-5.32 2.24-16.33 2.24-22.54v-38.96c0-8.46 0.37-17 0-25.46-0.56-12.66-13.58-10.78-22.51-10.78h-19.05c-3.8 0-8.5-0.66-12.17 0.65-8.84 3.16-6.81 14.67-6.81 22v68.69c0 4.84 7.5 4.85 7.5 0.01zM290.92 243.55v-78.4c0-2.54-0.17-4.91 3.18-5.45s7.44 0 10.91 0h17.8c3.34 0 7.25-0.58 10.55 0 5.24 0.91 3.1 13 3.1 16.67v62.42c0 2.82 0.84 6.92-2.91 7.65-3.44 0.67-7.69 0-11.18 0h-19.12c-2.9 0-11.88 1.55-12.33-2.89-0.47-4.75-8-4.8-7.5 0 1.37 13.57 17.63 10.39 27.3 10.39h18.71c4.63 0 9.1 0 12.3-4 4.18-5.32 2.23-16.33 2.23-22.54v-38.96c0-8.46 0.37-17 0-25.46-0.56-12.66-13.58-10.78-22.51-10.78H302.4c-3.8 0-8.5-0.66-12.17 0.65-8.84 3.16-6.81 14.67-6.81 22v68.69c0 4.84 7.5 4.85 7.5 0.01z" fill="#FFFFFF" p-id="2737"></path></svg>